<?xml version="1.0" encoding="UTF-8" standalone="no"?>
<svg
   xmlns:dc="http://purl.org/dc/elements/1.1/"
   xmlns:cc="http://creativecommons.org/ns#"
   xmlns:rdf="http://www.w3.org/1999/02/22-rdf-syntax-ns#"
   xmlns:svg="http://www.w3.org/2000/svg"
   xmlns="http://www.w3.org/2000/svg"
   xmlns:xlink="http://www.w3.org/1999/xlink"
   id="svg51048"
   preserveAspectRatio="xMidYMid meet"
   viewBox="0 0 1280.000000 886.000000"
   height="886.000000pt"
   width="1280.000000pt"
   version="1.0">
  <defs
     id="defs51052">
    <linearGradient
       id="linearGradient3912">
      <stop
         style="stop-color:#93ff00;stop-opacity:1;"
         offset="0"
         id="stop3908" />
      <stop
         style="stop-color:#93ff00;stop-opacity:0;"
         offset="1"
         id="stop3910" />
    </linearGradient>
    <linearGradient
       gradientTransform="matrix(0.9785,0,0,0.9785,13.804701,9.5245278)"
       xlink:href="#linearGradient3912"
       id="linearGradient3914"
       x1="0.29889502"
       y1="442.99997"
       x2="1279.6098"
       y2="442.99997"
       gradientUnits="userSpaceOnUse" />
  </defs>
  <metadata
     id="metadata51042">
Created by potrace 1.15, written by Peter Selinger 2001-2017
<rdf:RDF>
  <cc:Work
     rdf:about="">
    <dc:format>image/svg+xml</dc:format>
    <dc:type
       rdf:resource="http://purl.org/dc/dcmitype/StillImage" />
    <dc:title></dc:title>
  </cc:Work>
</rdf:RDF>
</metadata>
  <g
     id="layer2" />
  <g
     style="display:inline"
     id="layer1">
    <rect
       y="0"
       x="0"
       height="901.11395"
       width="1283.1345"
       id="rect51620"
       style="mix-blend-mode:normal;fill:#000000;stroke-width:0.80236" />
    <path
       d="m 641.61885,851.32805 14.6775,-25.2453 29.25715,-0.29355 29.25715,-0.29355 14.6775,-25.34315 14.6775,-25.441 28.7679,-0.1957 28.67005,-0.29355 14.6775,-25.14745 14.6775,-25.2453 18.29795,0.0978 c 9.9807,0.0978 22.5055,0.3914 27.7894,0.7828 l 9.5893,0.5871 13.99255,24.4625 13.99255,24.4625 29.25715,0.29355 29.25715,0.29355 14.4818,25.441 14.57965,25.34315 h 29.9421 30.04 l 14.6775,-25.441 14.6775,-25.34315 29.257,-0.29355 29.355,-0.29355 14.971,-25.73455 14.9711,-25.73455 -14.9711,-26.12595 -14.971,-26.12595 -29.2572,-0.29355 -29.3548,-0.29355 -11.742,-20.64635 c -6.4581,-11.3506 -12.8184,-22.60335 -14.0904,-24.8539 l -2.3484,-4.20755 13.5033,-23.2883 c 7.4366,-12.81835 14.0904,-23.97325 14.8732,-24.75605 1.1742,-1.27205 5.3817,-1.3699 28.9634,-1.07635 l 27.5937,0.29355 14.7754,-25.34315 14.6775,-25.2453 29.2571,-0.48925 29.2572,-0.48925 14.971,-25.441 c 8.2194,-13.99255 14.7754,-25.93025 14.6775,-26.51735 -0.098,-0.5871 -6.7516,-12.62265 -14.8732,-26.71305 L 1236.351,415.602 h -29.0614 -28.9636 l -13.7969,-24.0711 c -7.6323,-13.3076 -13.7968,-24.4625 -13.7968,-24.8539 0,-0.48925 6.2624,-11.5463 13.7968,-24.56035 7.6323,-13.01405 14.0904,-24.36465 14.2861,-25.2453 0.1957,-0.88065 -6.1645,-13.01405 -14.1882,-27.0066 l -14.6775,-25.441 -29.1593,-0.48925 -29.257,-0.48925 -14.2861,-24.8539 -14.2861,-24.95175 8.3172,-14.18825 c 4.5011,-7.828 11.0571,-19.1786 14.5797,-25.2453 l 6.3602,-10.86135 -14.971,-26.0281 -14.9711,-26.0281 h -29.0614 -28.9637 l -14.5796,-25.441002 -14.4818,-25.441 h -30.43135 -30.3335 l -13.699,23.6797 C 893.1912,97.10025 886.3417,108.5487 885.5589,109.62505 c -1.46775,1.7613 -2.64195,1.7613 -28.86575,0.9785 l -27.30015,-0.7828 -14.18825,-24.756052 -14.0904,-24.6582 H 772.0529 742.99145 L 728.4118,34.965498 713.93,9.524498 H 683.89005 653.8501 l -14.8732,25.441 -14.8732,25.441 h -28.9636 -29.06145 l -14.6775,25.441 -14.6775,25.343152 -27.49585,0.0978 h -27.49585 l -14.57965,-25.441002 -14.4818,-25.441 h -29.06145 -29.1593 l -14.4818,-25.441 -14.4818,-25.441 -30.23565,0.1957 -30.3335,0.29355 -14.6775,25.2453 -14.6775,25.14745 h -29.06145 -28.9636 l -14.77535,25.441 C 194.5422,99.84 187.8884,111.87555 187.98625,112.46265 c 0,0.68495 6.55595,12.5248 14.4818,26.2238 l 14.38395,24.95175 11.25275,0.5871 c 6.16455,0.3914 19.3743,0.68495 29.355,0.7828 l 18.2001,0.0978 14.38395,25.14745 c 10.5678,18.3958 14.18825,25.53885 13.60115,26.8109 -0.3914,0.88065 -6.75165,11.742 -13.99255,24.2668 L 276.44265,263.9345 H 247.3812 218.4176 l -14.8732,25.441 -14.8732,25.441 -28.86575,0.1957 -28.9636,0.29355 -14.6775,25.34315 -14.77535,25.34315 -28.767902,-0.3914 -28.865751,-0.3914 -14.57965,24.95175 c -8.023704,13.699 -14.873204,25.441 -15.068904,26.0281 -0.29355,0.68495 6.16455,12.9162 14.383954,27.2023 l 14.8732,26.0281 h 28.963601 28.963602 l 14.6775,25.441 14.6775,25.441 h 30.3335 l 30.3335,-0.0978 14.6775,-25.34315 14.6775,-25.441 h 16.2431 c 8.90435,0 21.527,0.29355 28.08295,0.68495 l 11.83985,0.5871 14.4818,25.2453 14.4818,25.34315 h 29.06145 28.9636 l 13.8947,24.16895 13.79685,24.2668 -1.7613,3.03335 c -0.9785,1.66345 -7.2409,12.5248 -13.99255,24.16895 l -12.23125,21.1356 -30.3335,0.0979 h -30.3335 l -14.97105,25.93025 -14.97105,25.8324 14.77535,25.8324 14.8732,25.93025 29.9421,0.68495 c 27.2023,0.68495 30.03995,0.5871 31.1163,-0.88065 0.5871,-0.88065 7.2409,-12.23125 14.6775,-25.0496 l 13.60115,-23.484 29.25715,0.1957 29.25715,0.29355 13.99255,24.4625 c 7.73015,13.5033 14.0904,24.6582 14.0904,24.95175 0,0.29355 -6.55595,11.742 -14.4818,25.441 l -14.57965,24.8539 14.8732,25.93025 14.8732,26.0281 29.25715,0.29355 29.25715,0.1957 14.4818,25.441 14.4818,25.441 h 30.1378 30.1378 z m -86.6951,-1.85915 c -7.53445,-13.20975 -13.79685,-24.56035 -13.79685,-25.0496 0,-0.9785 25.14745,-44.71745 27.69155,-48.04435 1.07635,-1.46775 3.7183,-1.5656 28.9636,-0.88065 l 27.88725,0.68495 13.8947,24.16895 13.79685,24.16895 L 639.1726,849.0775 624.98435,873.54 H 596.9014 568.81845 Z m 458.81865,-27.7894 h -10.2743 l -10.95918,-19.3743 c -6.06667,-10.5678 -12.32907,-21.527 -13.89467,-24.16895 l -2.83765,-4.8925 14.38395,-24.4625 14.28605,-24.4625 27.4959,-0.29355 c 25.2453,-0.1957 27.5937,-0.0978 28.9636,1.46775 2.9355,3.42475 27.3002,47.26155 27.0066,48.63145 -0.1957,0.68495 -6.4581,11.9377 -13.9925,25.0496 l -13.699,23.6797 -18.1023,-0.5871 c -9.9807,-0.29355 -22.7012,-0.5871 -28.3765,-0.5871 z M 642.20595,797.90195 628.2134,773.5373 l 14.0904,-24.0711 13.99255,-24.16895 h 28.08295 28.08295 l 14.18825,24.56035 14.0904,24.4625 -13.99255,24.16895 -13.8947,24.0711 -28.3765,-0.1957 -28.3765,-0.1957 z m -174.5644,0.5871 c -7.6323,-13.40545 -13.8947,-24.6582 -13.8947,-25.2453 0,-0.48925 6.36025,-11.83985 14.0904,-25.14745 l 13.99255,-24.16895 27.9851,0.5871 c 23.8754,0.48925 28.08295,0.7828 29.1593,2.05485 0.68495,0.88065 6.94735,11.64415 13.99255,23.97325 11.44845,19.86355 12.7205,22.60335 11.83985,24.6582 -1.27205,2.83765 -25.53885,44.52175 -26.90875,46.28305 -0.68495,0.88065 -7.6323,1.1742 -28.5722,1.1742 H 481.6341 Z M 1077.6385,747.3135 c -7.6323,-13.20975 -13.699,-24.56035 -13.4055,-25.34315 0.2936,-0.7828 6.4581,-11.9377 13.8947,-24.6582 l 13.4055,-23.2883 28.3763,-0.0978 h 28.3765 l 14.0904,24.4625 13.9926,24.4625 -7.5345,12.9162 c -4.2075,7.14305 -10.6656,18.2001 -14.3839,24.56035 l -6.7517,11.44845 -28.0829,-0.1957 -28.0828,-0.29355 z m -174.76015,0 c -11.83985,-20.7442 -13.40545,-23.97325 -12.5248,-25.8324 0.68495,-1.1742 7.2409,-12.42695 14.57965,-25.0496 l 13.5033,-22.99475 27.10445,-0.1957 27.10445,-0.1957 2.3484,3.62045 c 3.42475,5.2839 26.0281,45.011 26.0281,45.7938 0,0.48925 -5.67533,10.3721 -23.2883,40.41205 l -5.38175,9.1979 -27.88725,-0.48925 -27.9851,-0.48925 z m -173.5859,-0.5871 -14.0904,-24.56035 13.99255,-24.0711 13.99255,-24.16895 28.3765,0.29355 28.27865,0.1957 13.99255,24.36465 13.8947,24.4625 -1.7613,2.9355 c -1.7613,2.83765 -12.7205,21.62485 -22.5055,38.5529 l -4.1097,7.0452 -27.9851,-0.1957 -27.9851,-0.29355 z m -173.9773,0.9785 c -7.53445,-13.20975 -13.699,-24.56035 -13.699,-25.34315 0,-0.68495 6.16455,-11.9377 13.699,-24.8539 l 13.699,-23.58185 h 28.08295 27.9851 l 13.8947,24.16895 c 8.12155,14.18825 13.60115,24.95175 13.40545,25.93025 -0.29355,0.88065 -6.55595,12.03555 -13.8947,24.75605 L 625.0822,771.776 h -28.08295 -27.9851 z M 991.2369,697.8014 c -7.2409,-12.7205 -13.60115,-23.97325 -14.0904,-24.95175 -0.68495,-1.3699 2.25055,-7.14305 13.1119,-25.8324 l 13.9925,-23.97325 h 28.4744 28.5722 l 13.5033,23.77755 c 7.5345,13.01405 13.6012,24.16895 13.6012,24.6582 0,0.5871 -6.2624,11.9377 -14.0904,25.2453 l -14.0904,24.16895 h -27.8873 -27.8873 z m -174.85795,-1.3699 -13.8947,-24.36465 14.18825,-24.56035 14.2861,-24.4625 h 27.5937 27.49585 l 13.99255,24.4625 13.99255,24.36465 -9.0022,15.4603 c -4.8925,8.51295 -11.3506,19.57 -14.2861,24.56035 l -5.2839,9.0022 h -27.5937 l -27.5937,-0.0978 z m -174.27085,-0.5871 -13.99255,-24.6582 13.99255,-24.0711 13.99255,-24.0711 28.27865,0.29355 28.27865,0.1957 13.60115,23.77755 c 7.4366,13.1119 13.5033,24.36465 13.3076,25.14745 -0.1957,0.68495 -6.4581,11.83985 -13.99255,24.8539 l -13.699,23.58185 -27.88725,-0.1957 -27.7894,-0.29355 z m -152.54815,24.16895 -9.10005,-0.5871 -13.699,-23.8754 -13.699,-23.77755 14.38395,-24.8539 14.4818,-24.8539 21.03775,0.0978 c 11.5463,0.0978 24.2668,0.3914 28.08295,0.7828 l 7.14305,0.5871 13.79685,23.97325 c 11.83985,20.64635 13.60115,24.16895 12.7205,26.12595 -1.1742,2.64195 -25.441,44.32605 -26.8109,46.08735 -0.9785,1.27205 -31.1163,1.5656 -48.3379,0.29355 z m -198.92905,-25.6367 -13.99255,-24.4625 1.85915,-3.22905 c 0.9785,-1.7613 7.33875,-12.7205 14.0904,-24.36465 l 12.23125,-21.1356 28.3765,-0.0978 H 361.67 l 13.99255,24.56035 c 10.7635,18.7872 13.79685,24.95175 13.20975,26.2238 -0.48925,0.9785 -6.8495,11.9377 -14.0904,24.4625 L 361.57215,718.937 H 333.0978 304.5256 Z M 941.82265,669.0335 H 917.0666 l -13.79685,-24.2668 c -7.53445,-13.3076 -13.79685,-24.6582 -13.79685,-25.0496 0,-0.48925 6.2624,-11.64415 13.79685,-24.75605 l 13.79685,-23.77755 27.9851,0.1957 27.9851,0.29355 14.0904,24.6582 14.0904,24.6582 -9.0022,15.4603 c -21.9184,37.3787 -19.47215,33.8561 -22.7012,33.17115 -1.66345,-0.29355 -14.0904,-0.5871 -27.69155,-0.5871 z M 729.1946,645.45165 715.20205,620.8913 721.1709,610.42135 c 3.3269,-5.6753 9.68715,-16.6345 14.0904,-24.2668 l 7.92585,-13.8947 27.88725,-0.0978 h 27.88725 l 13.8947,24.4625 c 7.73015,13.40545 13.99255,24.95175 13.99255,25.53885 0,0.48925 -3.1312,6.2624 -6.8495,12.7205 -3.81615,6.36025 -9.9807,16.92805 -13.699,23.38615 l -6.94735,11.742 H 771.2701 743.18715 Z m -174.3687,0.0978 C 543.96455,626.4687 541.02905,620.5977 541.714,619.2278 c 0.48925,-0.9785 6.8495,-11.9377 14.0904,-24.4625 l 13.20975,-22.6033 h 27.88725 27.9851 l 13.99255,24.4625 c 7.6323,13.5033 13.79685,24.8539 13.60115,25.34315 -0.1957,0.48925 -6.4581,11.44845 -13.99255,24.4625 l -13.699,23.58185 h -27.9851 -28.08295 z m -173.87945,1.46775 c -7.14305,-12.3291 -13.40545,-23.484 -14.0904,-24.56035 -0.9785,-1.85915 0.5871,-4.99035 12.9162,-26.2238 l 14.0904,-24.0711 h 28.47435 28.5722 l 13.79685,24.2668 13.79685,24.36465 -14.2861,24.56035 -14.38395,24.6582 -27.9851,-0.1957 -27.9851,-0.29355 z M 990.2584,594.6675 c -8.6108,-15.16675 -13.699,-25.0496 -13.3076,-26.0281 0.88065,-2.25055 26.1259,-45.69595 27.398,-47.06585 0.8806,-0.9785 7.5345,-1.07635 28.4744,-0.5871 l 27.398,0.5871 11.742,20.5485 c 6.4581,11.3506 12.8183,22.40765 14.0904,24.75605 l 2.2505,4.1097 -13.9925,24.0711 -14.0904,24.0711 h -27.9851 -28.083 z m -149.80835,23.484 H 829.9801 l -13.79685,-24.0711 c -7.6323,-13.20975 -13.60115,-24.36465 -13.5033,-24.6582 0.1957,-0.3914 6.6538,-11.5463 14.38395,-24.95175 l 13.99255,-24.16895 27.398,0.1957 27.30015,0.29355 14.0904,24.36465 c 7.6323,13.5033 13.79685,24.6582 13.699,24.95175 -4.20755,7.4366 -25.93025,44.4239 -27.30015,46.47875 l -2.05485,2.83765 -16.6345,-0.5871 c -9.1979,-0.3914 -21.42915,-0.68495 -27.10445,-0.68495 z m -198.4398,-23.58185 c -13.01405,-22.7012 -13.8947,-24.75605 -12.9162,-27.10445 0.68495,-1.3699 6.94735,-12.3291 13.8947,-24.36465 L 655.8071,521.28 h 28.1808 28.1808 l 13.8947,24.4625 c 7.6323,13.40545 13.699,24.75605 13.5033,25.2453 -0.0978,0.48925 -6.4581,11.5463 -13.99255,24.4625 l -13.699,23.6797 H 683.9879 656.10065 Z M 468.7179,596.4288 c -7.2409,-12.5248 -13.5033,-23.484 -13.99255,-24.36465 -0.68495,-1.07635 2.64195,-7.53445 13.3076,-25.93025 l 14.18825,-24.36465 27.69155,-0.29355 27.7894,-0.1957 13.699,24.0711 c 7.53445,13.20975 13.699,24.56035 13.699,25.14745 0,0.68495 -6.16455,11.83985 -13.699,24.8539 l -13.699,23.6797 -27.9851,0.0978 h -27.9851 z m 435.92175,-49.9035 c -6.8495,-12.03555 -13.20975,-23.19045 -14.2861,-24.75605 l -1.7613,-2.9355 13.99255,-23.97325 13.8947,-23.97325 h 28.27865 28.27865 l 13.99255,24.36465 13.99255,24.36465 -13.3076,23.0926 c -7.4366,12.7205 -13.8947,23.6797 -14.38395,24.36465 -0.68495,0.88065 -7.6323,1.1742 -28.5722,1.1742 H 917.0666 Z M 728.9989,543.7855 715.00635,519.323 721.1709,508.7552 c 3.3269,-5.77315 9.68715,-16.73235 14.0904,-24.36465 l 7.92585,-13.8947 h 27.88725 27.88725 l 13.60115,23.8754 c 7.4366,13.1119 13.60115,24.16895 13.699,24.4625 0,0.29355 -6.2624,11.5463 -14.0904,25.0496 L 797.98315,568.248 H 770.4873 742.8936 Z m -173.48805,0.9785 c -7.33875,-12.9162 -13.5033,-23.77755 -13.60115,-24.2668 -0.1957,-0.48925 6.0667,-11.9377 13.8947,-25.441 l 14.18825,-24.56035 27.398,-0.0978 h 27.398 l 14.0904,24.36465 13.99255,24.4625 -9.10005,15.4603 c -4.8925,8.51295 -11.3506,19.57 -14.2861,24.56035 l -5.2839,9.0022 H 596.60785 568.9163 Z M 380.6529,544.1769 c -7.6323,-13.20975 -13.60115,-24.56035 -13.40545,-25.14745 0.29355,-0.68495 6.6538,-11.742 14.18825,-24.6582 l 13.699,-23.484 h 28.08295 28.08295 l 13.60115,23.484 c 7.53445,12.9162 13.5033,24.16895 13.40545,25.0496 -0.1957,0.88065 -6.4581,12.23125 -13.99255,25.14745 l -13.699,23.6797 h -27.9851 -28.08295 z m 699.334,4.01185 c -5.871,-10.1764 -12.1334,-21.23345 -13.8947,-24.4625 l -3.3269,-5.871 13.9925,-23.97325 13.8947,-23.97325 27.985,-0.29355 27.9851,-0.1957 12.0355,20.7442 c 6.556,11.44845 12.9162,22.60335 14.1883,24.75605 l 2.2505,3.914 -11.9377,20.5485 c -6.5559,11.3506 -12.9162,22.21195 -14.0904,24.2668 l -2.2505,3.62045 -28.083,-0.1957 -28.0828,-0.29355 z m -598.1571,-31.1163 c -1.3699,-1.7613 -27.10445,-47.45725 -27.10445,-48.1422 0,-1.1742 26.4195,-46.3809 28.1808,-48.3379 1.07635,-1.07635 6.0667,-1.1742 28.27865,-0.5871 l 26.90875,0.7828 13.79685,23.8754 13.699,23.8754 -12.3291,21.23345 c -6.75165,11.64415 -13.40545,22.8969 -14.77535,25.0496 l -2.44625,3.81615 -27.10445,-0.7828 c -14.8732,-0.3914 -27.10445,-0.7828 -27.10445,-0.7828 z m -174.7601,-0.5871 c -1.7613,-1.66345 -27.30015,-47.3594 -27.0066,-48.43575 0.1957,-0.68495 6.4581,-11.83985 13.99255,-24.8539 l 13.699,-23.6797 28.27865,0.29355 28.27865,0.1957 13.99255,24.4625 13.99255,24.4625 -1.85915,2.9355 c -0.9785,1.5656 -7.14305,12.23125 -13.699,23.484 -6.55595,11.3506 -12.3291,21.03775 -12.81835,21.62485 -0.88065,1.07635 -55.5788,0.68495 -56.85085,-0.48925 z m 880.6499,0.29355 -10.2743,-0.68495 -13.5033,-23.58185 c -7.4366,-13.01405 -13.5033,-23.97325 -13.5033,-24.56035 0,-0.48925 6.3603,-11.9377 14.0904,-25.2453 l 14.0904,-24.2668 27.6916,0.1957 27.6915,0.0978 2.3484,3.62045 c 1.1742,1.957 7.6323,12.9162 14.1883,24.4625 10.4699,18.29795 11.8398,21.23345 10.8613,23.19045 -1.1742,2.7398 -25.441,44.4239 -26.8109,46.1852 -1.0763,1.27205 -28.5722,1.66345 -46.8701,0.5871 z m -359.3051,-3.03335 c -1.3699,-2.05485 -7.92585,-13.3076 -14.57965,-25.0496 L 801.70145,467.36465 815.8897,443 830.1758,418.5375 h 8.31725 c 4.59895,0 17.31945,0.29355 28.08295,0.68495 l 19.7657,0.5871 13.79685,24.2668 13.8947,24.36465 -9.0022,15.36245 c -4.8925,8.51295 -11.3506,19.57 -14.2861,24.56035 l -5.2839,9.0022 H 858.1609 830.7629 Z M 642.01025,493.2949 c -7.6323,-13.3076 -13.79685,-24.56035 -13.79685,-25.0496 0,-0.48925 6.2624,-11.742 13.8947,-24.8539 l 13.8947,-23.8754 27.9851,0.1957 27.88725,0.29355 12.9162,22.5055 c 7.14305,12.42695 13.40545,23.484 14.0904,24.56035 0.9785,1.85915 -0.5871,4.99035 -12.9162,26.2238 l -14.0904,24.0711 H 683.7922 655.8071 Z m -523.4975,-0.3914 -13.8947,-24.4625 14.0904,-24.2668 14.0904,-24.16895 28.27865,-0.1957 28.27865,-0.29355 13.99255,24.4625 c 12.42695,21.9184 13.79685,24.75605 12.81835,26.71305 -2.25055,4.1097 -25.6367,44.2282 -26.6152,45.50025 -0.68495,0.88065 -7.73015,1.1742 -28.9636,1.1742 H 132.5053 Z m 871.4521,-0.29355 C 982.6261,479.5959 976.5594,468.441 976.5594,467.95175 c 0,-0.5871 6.36025,-11.742 14.0904,-24.95175 l 13.9925,-23.97325 27.4959,-0.29355 27.398,-0.1957 13.7969,24.0711 c 7.6323,13.20975 13.7968,24.56035 13.7968,25.14745 0,0.5871 -6.2624,11.742 -13.7968,24.8539 l -13.8947,23.77755 h -27.9851 l -27.9852,-0.0978 z M 381.0443,442.4129 l -14.18825,-24.6582 14.4818,-24.6582 14.38395,-24.75605 6.36025,0.68495 c 3.5226,0.29355 16.0474,0.5871 27.69155,0.5871 h 21.1356 l 13.99255,24.2668 c 7.6323,13.3076 13.8947,24.6582 13.8947,25.14745 0,0.5871 -4.40325,8.51295 -9.785,17.613 -5.2839,9.1979 -11.5463,19.86355 -13.8947,23.77755 l -4.1097,7.0452 -27.88725,-0.1957 -27.88725,-0.29355 z m 721.6436,23.38615 -12.3289,-0.5871 -13.5033,-23.484 c -7.4366,-12.9162 -13.5033,-23.97325 -13.5033,-24.56035 0,-1.27205 26.3216,-46.47875 27.9851,-48.24005 0.8806,-0.88065 8.0235,-0.9785 28.7677,-0.5871 l 27.6916,0.5871 13.699,23.8754 c 7.6323,13.20975 13.699,24.2668 13.5033,24.6582 -0.1957,0.3914 -6.6538,11.5463 -14.384,24.8539 l -14.0904,24.16895 h -15.7538 c -8.7087,0 -21.3313,-0.29355 -28.083,-0.68495 z M 903.46545,443 c -7.33875,-12.62265 -13.5033,-23.77755 -13.699,-24.6582 -0.29355,-0.9785 5.18605,-11.44845 13.5033,-25.73455 L 917.2623,368.634 h 27.9851 l 27.88725,0.0978 13.60115,23.8754 c 8.51292,15.0689 13.3076,24.56035 12.91617,25.53885 -0.48925,1.3699 -23.28827,40.9013 -26.61517,46.1852 l -1.46775,2.1527 -27.398,-0.1957 -27.398,-0.29355 z m -174.3687,-0.9785 -13.99255,-24.56035 14.57965,-24.95175 14.4818,-25.0496 7.2409,0.5871 c 4.01185,0.29355 16.34095,0.5871 27.398,0.5871 h 20.1571 l 13.699,24.0711 c 7.53445,13.3076 13.60115,24.56035 13.40545,25.14745 -0.1957,0.48925 -6.55595,11.742 -14.18825,24.75605 l -13.8947,23.8754 h -27.398 -27.49585 z M 556.9786,444.957 c -6.6538,-11.5463 -13.01405,-22.7012 -14.0904,-24.6582 l -2.05485,-3.5226 13.99255,-24.0711 13.8947,-24.0711 h 28.08295 28.08295 l 13.99255,24.4625 c 7.6323,13.5033 13.79685,24.8539 13.60115,25.34315 -0.1957,0.48925 -6.4581,11.44845 -13.99255,24.4625 l -13.699,23.58185 -27.7894,-0.1957 -27.88725,-0.29355 z m -350.59655,-2.44625 c -7.4366,-12.9162 -13.60115,-24.0711 -13.60115,-24.75605 0,-0.68495 6.2624,-11.9377 13.8947,-25.14745 L 220.66815,368.634 h 27.88725 27.88725 l 13.20975,23.0926 c 7.2409,12.7205 13.60115,23.97325 14.0904,24.95175 0.68495,1.3699 -2.25055,7.14305 -13.1119,25.8324 l -13.99255,23.97325 -28.3765,-0.1957 -28.27865,-0.29355 z m -174.857953,-0.1957 c -7.632299,-13.40545 -13.894704,-24.6582 -13.894704,-25.0496 0,-0.48925 6.262405,-11.5463 13.894704,-24.75605 l 13.99255,-23.8754 h 28.376501 l 28.376502,0.0978 13.8947,24.36465 13.79685,24.4625 -14.18825,24.4625 -14.2861,24.4625 H 73.403898 45.418797 Z m 610.486153,-50.6863 c -7.6323,-13.1119 -13.79685,-24.2668 -13.79685,-24.6582 0,-0.3914 6.36025,-11.5463 13.99255,-24.75605 l 13.99255,-23.97325 27.49585,-0.29355 27.49585,-0.1957 13.79685,23.97325 c 7.6323,13.1119 13.79685,24.36465 13.79685,24.95175 0,1.07635 -6.2624,12.1334 -21.527,38.1615 l -6.6538,11.25275 -27.398,-0.29355 -27.49585,-0.29355 z m 348.05245,-0.88065 -14.18825,-24.75605 13.99255,-23.8754 13.8947,-23.8754 28.1808,-0.1957 28.2787,-0.29355 13.8947,24.36465 13.9925,24.36465 -14.3839,24.56035 -14.2861,24.56035 h -27.5937 -27.5938 z m -171.4332,5.2839 c -6.0667,-10.46995 -12.3291,-21.527 -13.99255,-24.4625 l -3.1312,-5.38175 13.99255,-23.97325 13.8947,-23.97325 h 28.27865 28.27865 l 13.99255,24.36465 c 12.1334,21.23345 13.79685,24.56035 12.81835,26.4195 -2.1527,4.1097 -25.53885,44.13035 -26.51735,45.4024 -0.68495,0.88065 -7.2409,1.1742 -28.86575,0.9785 l -27.88725,-0.29355 z m -350.59655,-4.8925 -13.8947,-24.4625 14.2861,-24.4625 14.18825,-24.4625 h 27.5937 27.49585 l 13.99255,24.56035 13.99255,24.56035 -7.53445,12.81835 c -4.1097,7.14305 -10.5678,18.10225 -14.2861,24.4625 l -6.75165,11.44845 h -27.5937 l -27.5937,-0.0978 z m -174.46655,0.29355 c -7.53445,-13.3076 -13.60115,-24.6582 -13.5033,-25.2453 0.1957,-0.68495 6.4581,-11.83985 13.99255,-24.75605 l 13.699,-23.6797 h 27.9851 27.9851 l 14.18825,24.75605 14.0904,24.75605 -11.05705,19.08075 c -6.16455,10.46995 -12.42695,21.3313 -13.99255,24.16895 l -2.9355,5.0882 H 335.73975 307.4611 Z m -174.85795,-0.68495 -13.8947,-24.36465 13.99255,-24.0711 14.0904,-24.0711 28.1808,-0.1957 28.27865,-0.29355 13.699,24.0711 c 7.53445,13.20975 13.699,24.4625 13.699,25.14745 0,0.68495 -6.16455,11.83985 -13.699,24.8539 l -13.699,23.77755 -28.27865,-0.29355 -28.3765,-0.1957 z M 568.3292,363.83935 c -1.27205,-1.1742 -27.2023,-47.06585 -27.2023,-48.1422 0,-0.5871 6.2624,-11.83985 13.8947,-24.95175 L 568.9163,266.87 h 27.5937 27.5937 l 14.38395,25.0496 14.2861,24.95175 -13.40545,23.19045 c -7.4366,12.7205 -13.79685,23.6797 -14.18825,24.2668 -0.88065,1.07635 -55.5788,0.68495 -56.85085,-0.48925 z m -186.40425,-21.1356 c -7.14305,-12.3291 -13.40545,-23.38615 -13.99255,-24.4625 -0.88065,-1.7613 0.9785,-5.4796 13.3076,-26.8109 l 14.38395,-24.75605 27.398,0.3914 27.30015,0.29355 13.99255,24.4625 c 12.42695,21.527 13.8947,24.56035 12.9162,26.4195 -0.68495,1.1742 -7.14305,12.3291 -14.38395,24.8539 l -13.20975,22.79905 -27.398,-0.3914 -27.398,-0.29355 z m 695.22425,-2.25055 c -7.4366,-13.1119 -13.5033,-24.36465 -13.3076,-25.0496 0.1957,-0.68495 6.4581,-11.9377 13.9926,-24.8539 l 13.699,-23.6797 28.2785,0.29355 28.2786,0.1957 13.9926,24.4625 c 12.5248,21.82055 13.8947,24.6582 12.7205,26.4195 -0.685,1.07635 -7.0452,11.9377 -14.1883,24.2668 l -13.014,22.21195 -28.3765,-0.1957 -28.4742,-0.29355 z m -172.50955,2.5441 c -6.8495,-12.03555 -13.20975,-23.19045 -14.18825,-24.75605 l -1.85915,-2.9355 13.99255,-23.97325 13.99255,-23.97325 28.27865,-0.1957 28.27865,-0.29355 13.8947,24.4625 13.99255,24.36465 -14.2861,24.4625 L 972.4497,364.72 H 944.75815 917.0666 Z m -154.603,21.1356 -7.828,-0.68495 -13.99255,-24.4625 -13.8947,-24.4625 13.99255,-24.0711 13.99255,-24.0711 19.57,-0.29355 c 10.66565,-0.0978 23.38615,0.0978 28.27865,0.48925 l 8.70865,0.7828 13.8947,24.16895 13.79685,24.16895 -14.2861,24.4625 L 798.081,364.72 h -20.1571 c -11.05705,0 -23.58185,-0.29355 -27.88725,-0.5871 z m -541.6976,-20.1571 c -6.55595,-11.44845 -12.9162,-22.60335 -14.0904,-24.75605 l -2.25055,-3.914 14.18825,-24.16895 14.0904,-24.2668 h 28.1808 28.08295 l 13.99255,24.4625 c 7.6323,13.5033 13.79685,24.8539 13.60115,25.34315 -0.1957,0.48925 -6.4581,11.44845 -13.99255,24.4625 L 276.44265,364.72 H 248.3597 220.3746 Z m 85.42305,-54.11105 c -12.1334,-21.03775 -13.8947,-24.6582 -13.01405,-26.6152 1.66345,-3.7183 25.73455,-44.71745 27.0066,-46.1852 0.9785,-1.07635 6.16455,-1.1742 28.5722,-0.5871 l 27.30015,0.7828 13.20975,22.99475 c 7.14305,12.62265 13.5033,23.6797 13.8947,24.6582 0.68495,1.27205 -2.64195,7.6323 -13.20975,25.8324 l -13.99255,24.0711 -27.88725,-0.29355 -27.88725,-0.1957 z m 695.81135,-0.9785 C 976.9508,266.87 975.7766,264.3259 976.9508,262.46675 c 0.68495,-1.07635 7.0452,-11.9377 14.18825,-24.16895 l 13.01405,-22.3098 h 28.1808 28.1808 l 13.7969,24.0711 c 7.6323,13.3076 13.7968,24.4625 13.7968,24.95175 0,0.48925 -6.2624,11.742 -13.9925,24.8539 l -13.8947,23.97325 -28.2787,-0.29355 -28.3765,-0.1957 z m -174.27085,0.3914 -13.99255,-24.56035 14.0904,-24.0711 14.0904,-24.16895 27.88725,-0.29355 27.9851,-0.1957 13.8947,24.16895 c 8.12155,14.18825 13.60115,24.95175 13.40545,25.93025 -0.29355,0.88065 -6.55595,12.03555 -13.8947,24.75605 L 885.3632,313.838 h -28.08295 l -27.9851,-0.0978 z m -173.29235,0.48925 c -7.6323,-13.3076 -13.79685,-24.56035 -13.79685,-25.2453 0,-0.5871 6.2624,-11.742 13.99255,-24.8539 l 13.8947,-23.77755 27.398,0.0978 c 15.0689,0 27.69155,0.3914 28.08295,0.7828 0.29355,0.3914 6.6538,11.1549 13.99255,23.97325 8.0237,13.99255 13.1119,23.8754 12.81835,24.8539 -0.5871,1.27205 -23.38615,40.9013 -26.6152,46.08735 -1.3699,2.1527 -1.46775,2.1527 -28.67005,2.1527 H 655.8071 Z m -174.46655,-0.88065 -14.2861,-24.95175 13.8947,-23.77755 13.8947,-23.6797 h 28.27865 28.27865 l 13.99255,24.36465 c 7.6323,13.40545 13.79685,24.6582 13.60115,24.95175 -0.48925,0.88065 -13.60115,23.38615 -21.1356,36.30235 l -6.94735,11.742 h -27.5937 -27.69155 z m 434.8454,-50.97985 -13.99255,-24.6582 13.99255,-24.0711 13.99255,-24.0711 28.27865,0.29355 28.27865,0.1957 13.99255,24.2668 13.8947,24.36465 -2.64198,4.5011 c -1.46775,2.5441 -7.82797,13.5033 -14.18822,24.4625 l -11.5463,19.7657 -27.9851,-0.1957 -27.9851,-0.29355 z m -174.173,0.5871 -13.8947,-24.56035 14.0904,-24.16895 14.0904,-24.16895 27.7894,-0.29355 27.88725,-0.1957 13.60115,23.6797 c 7.4366,13.01405 13.699,24.2668 13.8947,24.95175 0.1957,0.7828 -5.871,12.1334 -13.60115,25.2453 l -13.8947,23.97325 h -27.9851 -27.9851 z m -173.87945,0.29355 C 546.8022,225.47945 540.7355,214.2267 540.9312,213.6396 c 0.1957,-0.5871 6.55595,-11.742 14.18825,-24.75605 L 568.9163,165.106 h 27.5937 27.5937 l 13.8947,24.16895 c 7.53445,13.3076 13.5033,24.75605 13.20975,25.53885 -0.48925,1.27205 -23.484,41.097 -26.51735,45.9895 -1.3699,2.1527 -1.46775,2.1527 -29.06145,2.1527 l -27.5937,-0.0978 z m -173.9773,-0.7828 -14.18825,-24.8539 13.8947,-23.77755 13.79685,-23.77755 h 28.27865 28.1808 l 13.60115,23.484 c 7.4366,12.9162 13.5033,24.0711 13.60115,24.75605 0,0.7828 -6.2624,12.1334 -13.8947,25.2453 L 449.735,262.956 H 422.1413 394.64545 Z M 989.57345,187.6115 975.5809,163.149 989.867,138.6865 1004.1531,114.224 h 28.083 28.0829 l 13.9926,24.56035 c 10.7635,18.7872 13.7968,24.95175 13.2097,26.2238 -0.4892,0.9785 -6.8495,11.9377 -14.0904,24.4625 l -13.2097,22.60335 h -28.3765 -28.3766 z m -174.07515,-0.0978 -13.79685,-23.97325 14.2861,-24.6582 14.2861,-24.6582 27.7894,0.29355 27.7894,0.1957 13.60115,23.77755 c 7.4366,13.1119 13.5033,24.36465 13.3076,25.0496 -0.1957,0.68495 -6.4581,11.83985 -13.99255,24.8539 l -13.699,23.6797 -27.88725,-0.29355 -27.88725,-0.1957 z m -174.27085,-0.29355 -13.8947,-24.36465 2.3484,-4.01185 c 1.27205,-2.25055 7.6323,-13.01405 13.99255,-24.0711 l 11.742,-20.05925 h 28.1808 28.1808 l 13.8947,24.2668 13.8947,24.2668 -14.2861,24.4625 -14.18825,24.36465 -27.9851,-0.1957 L 655.22,211.5848 Z m -173.9773,0.7828 c -7.53445,-13.30765 -13.60115,-24.5604 -13.40545,-25.1475 0.1957,-0.48925 6.55595,-11.64415 14.0904,-24.75605 l 13.8947,-23.8754 h 27.5937 27.5937 l 13.01405,22.79905 c 7.14305,12.42695 13.60115,23.58185 14.2861,24.6582 1.07635,1.85915 0,4.20755 -11.5463,23.97325 -7.0452,12.1334 -13.40545,22.99475 -14.18825,24.2668 -1.3699,2.1527 -1.46775,2.1527 -29.5507,2.1527 h -28.08295 z m -174.7601,0.0978 c -7.4366,-12.9162 -13.5033,-23.97325 -13.5033,-24.4625 -0.0978,-0.5871 6.16455,-11.83985 13.8947,-24.95175 l 13.8947,-23.97325 h 28.27865 28.27865 l 13.5033,23.484 c 7.4366,12.9162 13.5033,24.0711 13.5033,24.75605 0.0978,0.68495 -6.16455,12.03555 -13.79685,25.2453 l -13.8947,23.8754 -28.27865,-0.1957 -28.3765,-0.29355 z m 87.77145,-50.6863 c -7.53445,-13.01405 -13.60115,-24.16895 -13.60115,-24.6582 0,-0.5871 6.2624,-11.9377 13.99255,-25.245302 l 14.0904,-24.16895 h 27.88725 27.9851 l 13.99255,24.4625 c 12.5248,22.016252 13.8947,24.658202 12.81835,26.615202 -3.03335,5.77315 -25.73455,44.52175 -26.90875,45.7938 -1.07635,1.27205 -5.2839,1.46775 -28.9636,1.1742 l -27.69155,-0.29355 z m 522.02975,-0.7828 -14.0904,-24.56035 1.85915,-3.22905 c 0.9785,-1.66345 7.33875,-12.62265 14.0904,-24.266802 l 12.23125,-21.1356 h 28.3765 l 28.3765,-0.09785 13.99255,24.4625 13.9925,24.364652 -9.00215,15.4603 c -4.8925,8.51295 -11.3506,19.57 -14.2861,24.56035 l -5.2839,9.0022 H 944.4646 916.38165 Z m -173.7816,0.48925 c -7.53445,-13.20975 -13.699,-24.2668 -13.60115,-24.56035 0,-0.29355 6.36025,-11.44845 14.18825,-24.853902 l 14.0904,-24.36465 27.49585,0.09785 c 24.6582,0 27.69155,0.1957 28.9636,1.66345 1.46775,1.7613 26.0281,44.423902 26.4195,46.087352 0.1957,0.48925 -6.0667,11.9377 -13.8947,25.441 L 797.98315,161.192 H 770.0959 742.20865 Z m -174.173,-0.1957 c -7.53445,-13.20975 -13.699,-24.56035 -13.699,-25.2453 0,-0.5871 6.16455,-11.742 13.699,-24.756052 l 13.699,-23.58185 28.27865,0.1957 28.27865,0.29355 13.8947,24.36465 13.99255,24.364652 -6.0667,10.3721 c -3.3269,5.6753 -9.785,16.6345 -14.18825,24.36465 l -8.12155,13.8947 -27.9851,-0.0978 h -28.08295 z m -349.42235,-0.48925 -13.79685,-24.2668 14.18825,-24.364652 14.18825,-24.4625 h 28.1808 28.08295 l 13.79685,24.0711 c 7.6323,13.307602 13.79685,24.560352 13.79685,25.049602 0,0.48925 -6.2624,11.742 -13.8947,24.8539 l -13.8947,23.8754 -28.3765,-0.1957 -28.3765,-0.29355 z m 462.4391,-25.73455 -12.3291,-0.68495 -13.8947,-24.168952 -13.8947,-24.2668 14.2861,-24.56035 14.2861,-24.56035 16.73235,0.09785 c 9.29575,0.09785 22.1141,0.3914 28.47435,0.7828 l 11.742,0.5871 13.5033,23.484 c 7.33875,12.9162 13.5033,23.77755 13.5033,24.2668 0,0.3914 -6.4581,11.742 -14.2861,25.14745 L 711.1902,111.2885 h -15.75385 c -8.70865,0 -21.3313,-0.29355 -28.08295,-0.5871 z M 322.43215,110.31 H 306.6783 l -13.99255,-24.462502 -13.99255,-24.4625 14.18825,-24.2668 14.0904,-24.16895 27.9851,-0.29355 28.08295,-0.1957 2.25055,3.62045 c 6.16455,9.68715 26.12595,45.50025 25.8324,46.08735 -0.1957,0.3914 -6.75165,11.64415 -14.4818,25.0496 l -14.0904,24.364652 -12.23125,-0.68495 c -6.75165,-0.29355 -19.27645,-0.5871 -27.88725,-0.5871 z"
       id="path51044"
       style="fill:url(#linearGradient3914);fill-opacity:1;stroke:none;stroke-width:0.09785" />
  </g>
  <g
     id="layer3" />
</svg>
