<svg width="1280pt" height="886pt" version="1.0" viewBox="0 0 1280 886" xmlns="http://www.w3.org/2000/svg" xmlns:xlink="http://www.w3.org/1999/xlink">
 <defs>
  <linearGradient id="linearGradient3914" x1=".2989" x2="1279.6" y1="443" y2="443" gradientTransform="matrix(.9785 0 0 .9785 13.805 9.5245)" gradientUnits="userSpaceOnUse">
   <stop stop-color="#93ff00" offset="0"/>
   <stop stop-color="#93ff00" stop-opacity="0" offset="1"/>
  </linearGradient>
 </defs>
 <g>
  <rect width="1283.1" height="901.11" stroke-width=".80236" style="mix-blend-mode:normal"/>
  <path d="m641.62 851.33 14.678-25.245 58.514-0.5871 14.678-25.343 14.678-25.441 28.768-0.1957 28.67-0.29355 14.678-25.147 14.678-25.245 18.298 0.0978c9.9807 0.0978 22.506 0.3914 27.789 0.7828l9.5893 0.5871 27.985 48.925 58.514 0.5871 14.482 25.441 14.58 25.343h59.982l14.678-25.441 14.678-25.343 29.257-0.29355 29.355-0.29355 14.971-25.735 14.971-25.735-14.971-26.126-14.971-26.126-58.612-0.5871-11.742-20.646c-6.4581-11.351-12.818-22.603-14.09-24.854l-2.3484-4.2076 13.503-23.288c7.4366-12.818 14.09-23.973 14.873-24.756 1.1742-1.272 5.3817-1.3699 28.963-1.0764l27.594 0.29355 14.775-25.343 14.678-25.245 58.514-0.9785 14.971-25.441c8.2194-13.993 14.775-25.93 14.678-26.517-0.098-0.5871-6.7516-12.623-14.873-26.713l-14.678-25.539h-58.025l-13.797-24.071c-7.6323-13.308-13.797-24.462-13.797-24.854 0-0.48925 6.2624-11.546 13.797-24.56 7.6323-13.014 14.09-24.365 14.286-25.245s-6.1645-13.014-14.188-27.007l-14.678-25.441-29.159-0.48925-29.257-0.48925-14.286-24.854-14.286-24.952 8.3172-14.188c4.5011-7.828 11.057-19.179 14.58-25.245l6.3602-10.861-29.942-52.056h-58.025l-14.58-25.441-14.482-25.441h-60.765l-13.699 23.68c-7.5344 13.014-14.384 24.463-15.167 25.539-1.4678 1.7613-2.642 1.7613-28.866 0.9785l-27.3-0.7828-14.188-24.756-14.09-24.658h-58.123l-14.58-25.441-14.482-25.441h-60.08l-29.746 50.882h-58.025l-14.678 25.441-14.678 25.343-27.496 0.0978h-27.496l-14.58-25.441-14.482-25.441h-58.221l-28.964-50.882-30.236 0.1957-30.334 0.29355-14.678 25.245-14.678 25.147h-58.025l-14.775 25.441c-8.2194 13.993-14.873 26.028-14.775 26.615 0 0.68495 6.556 12.525 14.482 26.224l14.384 24.952 11.253 0.5871c6.1646 0.3914 19.374 0.68495 29.355 0.7828l18.2 0.0978 14.384 25.147c10.568 18.396 14.188 25.539 13.601 26.811-0.3914 0.88065-6.7516 11.742-13.993 24.267l-13.21 22.603h-58.025l-29.746 50.882-28.866 0.1957-28.964 0.29355-14.678 25.343-14.775 25.343-57.634-0.7828-14.58 24.952c-8.0237 13.699-14.873 25.441-15.069 26.028-0.29355 0.68495 6.1646 12.916 14.384 27.202l14.873 26.028h57.927l29.355 50.882h30.334l30.334-0.0978 14.678-25.343 14.678-25.441h16.243c8.9044 0 21.527 0.29355 28.083 0.68495l11.84 0.5871 14.482 25.245 14.482 25.343h58.025l13.895 24.169 13.797 24.267-1.7613 3.0334c-0.9785 1.6634-7.2409 12.525-13.993 24.169l-12.231 21.136-30.334 0.0979h-30.334l-14.971 25.93-14.971 25.832 14.775 25.832 14.873 25.93 29.942 0.68495c27.202 0.68495 30.04 0.5871 31.116-0.88065 0.5871-0.88065 7.2409-12.231 14.678-25.05l13.601-23.484 29.257 0.1957 29.257 0.29355 13.993 24.462c7.7302 13.503 14.09 24.658 14.09 24.952s-6.556 11.742-14.482 25.441l-14.58 24.854 14.873 25.93 14.873 26.028 29.257 0.29355 29.257 0.1957 28.964 50.882h60.276zm-86.695-1.8592c-7.5344-13.21-13.797-24.56-13.797-25.05 0-0.9785 25.147-44.717 27.692-48.044 1.0764-1.4678 3.7183-1.5656 28.964-0.88065l27.887 0.68495 13.895 24.169 13.797 24.169-14.188 24.56-14.188 24.462h-56.166zm458.82-27.789h-10.274l-10.959-19.374c-6.0667-10.568-12.329-21.527-13.895-24.169l-2.8376-4.8925 14.384-24.462 14.286-24.462 27.496-0.29355c25.245-0.1957 27.594-0.0978 28.964 1.4678 2.9355 3.4248 27.3 47.262 27.007 48.631-0.1957 0.68495-6.4581 11.938-13.992 25.05l-13.699 23.68-18.102-0.5871c-9.9807-0.29355-22.701-0.5871-28.376-0.5871zm-371.54-23.778-13.993-24.365 14.09-24.071 13.993-24.169h56.166l14.188 24.56 14.09 24.462-13.993 24.169-13.895 24.071-56.753-0.3914zm-174.56 0.5871c-7.6323-13.405-13.895-24.658-13.895-25.245 0-0.48925 6.3602-11.84 14.09-25.147l13.993-24.169 27.985 0.5871c23.875 0.48925 28.083 0.7828 29.159 2.0548 0.68495 0.88065 6.9474 11.644 13.993 23.973 11.448 19.864 12.72 22.603 11.84 24.658-1.272 2.8376-25.539 44.522-26.909 46.283-0.68495 0.88065-7.6323 1.1742-28.572 1.1742h-27.692zm610-51.176c-7.6323-13.21-13.699-24.56-13.406-25.343 0.2936-0.7828 6.4581-11.938 13.895-24.658l13.406-23.288 28.376-0.0978h28.376l14.09 24.462 13.993 24.462-7.5345 12.916c-4.2075 7.143-10.666 18.2-14.384 24.56l-6.7517 11.448-28.083-0.1957-28.083-0.29355zm-174.76 0c-11.84-20.744-13.405-23.973-12.525-25.832 0.68495-1.1742 7.2409-12.427 14.58-25.05l13.503-22.995 54.209-0.3914 2.3484 3.6204c3.4248 5.2839 26.028 45.011 26.028 45.794 0 0.48925-5.6753 10.372-23.288 40.412l-5.3818 9.1979-27.887-0.48925-27.985-0.48925zm-173.59-0.5871-14.09-24.56 13.993-24.071 13.993-24.169 28.376 0.29355 28.279 0.1957 13.993 24.365 13.895 24.462-1.7613 2.9355c-1.7613 2.8376-12.72 21.625-22.506 38.553l-4.1097 7.0452-27.985-0.1957-27.985-0.29355zm-173.98 0.9785c-7.5344-13.21-13.699-24.56-13.699-25.343 0-0.68495 6.1646-11.938 13.699-24.854l13.699-23.582h56.068l13.895 24.169c8.1216 14.188 13.601 24.952 13.405 25.93-0.29355 0.88065-6.556 12.036-13.895 24.756l-13.405 22.995h-56.068zm435.92-49.904c-7.2409-12.72-13.601-23.973-14.09-24.952-0.68495-1.3699 2.2506-7.143 13.112-25.832l13.992-23.973h57.047l13.503 23.778c7.5345 13.014 13.601 24.169 13.601 24.658 0 0.5871-6.2624 11.938-14.09 25.245l-14.09 24.169h-55.775zm-174.86-1.3699-13.895-24.365 14.188-24.56 14.286-24.462h55.09l13.993 24.462 13.993 24.365-9.0022 15.46c-4.8925 8.513-11.351 19.57-14.286 24.56l-5.2839 9.0022h-27.594l-27.594-0.0978zm-174.27-0.5871-13.993-24.658 27.985-48.142 28.279 0.29355 28.279 0.1957 13.601 23.778c7.4366 13.112 13.503 24.365 13.308 25.147-0.1957 0.68495-6.4581 11.84-13.993 24.854l-13.699 23.582-27.887-0.1957-27.789-0.29355zm-152.55 24.169-9.1-0.5871-13.699-23.875-13.699-23.778 14.384-24.854 14.482-24.854 21.038 0.0978c11.546 0.0978 24.267 0.3914 28.083 0.7828l7.143 0.5871 13.797 23.973c11.84 20.646 13.601 24.169 12.72 26.126-1.1742 2.642-25.441 44.326-26.811 46.087-0.9785 1.272-31.116 1.5656-48.338 0.29355zm-198.93-25.637-13.993-24.462 1.8592-3.229c0.9785-1.7613 7.3388-12.72 14.09-24.365l12.231-21.136 28.376-0.0978h28.474l13.993 24.56c10.764 18.787 13.797 24.952 13.21 26.224-0.48925 0.9785-6.8495 11.938-14.09 24.462l-13.21 22.603h-57.047zm651.19-25.343h-24.756l-13.797-24.267c-7.5344-13.308-13.797-24.658-13.797-25.05 0-0.48925 6.2624-11.644 13.797-24.756l13.797-23.778 27.985 0.1957 27.985 0.29355 28.181 49.316-9.0022 15.46c-21.918 37.379-19.472 33.856-22.701 33.171-1.6634-0.29355-14.09-0.5871-27.692-0.5871zm-212.63-23.582-13.993-24.56 5.9688-10.47c3.3269-5.6753 9.6872-16.634 14.09-24.267l7.9258-13.895 27.887-0.0978h27.887l13.895 24.462c7.7302 13.405 13.993 24.952 13.993 25.539 0 0.48925-3.1312 6.2624-6.8495 12.72-3.8162 6.3602-9.9807 16.928-13.699 23.386l-6.9474 11.742h-56.166zm-174.37 0.0978c-10.861-19.081-13.797-24.952-13.112-26.322 0.48925-0.9785 6.8495-11.938 14.09-24.462l13.21-22.603h55.872l13.993 24.462c7.6323 13.503 13.797 24.854 13.601 25.343s-6.4581 11.448-13.993 24.462l-13.699 23.582h-56.068zm-173.88 1.4678c-7.143-12.329-13.405-23.484-14.09-24.56-0.9785-1.8592 0.5871-4.9904 12.916-26.224l14.09-24.071h57.047l13.797 24.267 13.797 24.365-14.286 24.56-14.384 24.658-27.985-0.1957-27.985-0.29355zm609.31-52.35c-8.6108-15.167-13.699-25.05-13.308-26.028 0.88065-2.2506 26.126-45.696 27.398-47.066 0.8806-0.9785 7.5345-1.0764 28.474-0.5871l27.398 0.5871 11.742 20.548c6.4581 11.351 12.818 22.408 14.09 24.756l2.2505 4.1097-13.992 24.071-14.09 24.071h-56.068zm-149.81 23.484h-10.47l-13.797-24.071c-7.6323-13.21-13.601-24.365-13.503-24.658 0.1957-0.3914 6.6538-11.546 14.384-24.952l13.993-24.169 27.398 0.1957 27.3 0.29355 14.09 24.365c7.6323 13.503 13.797 24.658 13.699 24.952-4.2076 7.4366-25.93 44.424-27.3 46.479l-2.0548 2.8376-16.634-0.5871c-9.1979-0.3914-21.429-0.68495-27.104-0.68495zm-198.44-23.582c-13.014-22.701-13.895-24.756-12.916-27.104 0.68495-1.3699 6.9474-12.329 13.895-24.365l12.818-21.821h56.362l13.895 24.462c7.6323 13.405 13.699 24.756 13.503 25.245-0.0978 0.48925-6.4581 11.546-13.993 24.462l-13.699 23.68h-55.774zm-173.29 1.8592c-7.2409-12.525-13.503-23.484-13.993-24.365-0.68495-1.0764 2.642-7.5344 13.308-25.93l14.188-24.365 27.692-0.29355 27.789-0.1957 13.699 24.071c7.5344 13.21 13.699 24.56 13.699 25.147 0 0.68495-6.1646 11.84-13.699 24.854l-13.699 23.68-27.985 0.0978h-27.985zm435.92-49.904c-6.8495-12.036-13.21-23.19-14.286-24.756l-1.7613-2.9355 13.993-23.973 13.895-23.973h56.557l27.985 48.729-13.308 23.093c-7.4366 12.72-13.895 23.68-14.384 24.365-0.68495 0.88065-7.6323 1.1742-28.572 1.1742h-27.692zm-175.64-2.7398-13.993-24.462 6.1646-10.568c3.3269-5.7732 9.6872-16.732 14.09-24.365l7.9258-13.895h55.774l13.601 23.875c7.4366 13.112 13.601 24.169 13.699 24.462 0 0.29355-6.2624 11.546-14.09 25.05l-14.188 24.365h-55.09zm-173.49 0.9785c-7.3388-12.916-13.503-23.778-13.601-24.267-0.1957-0.48925 6.0667-11.938 13.895-25.441l14.188-24.56 27.398-0.0978h27.398l14.09 24.365 13.993 24.462-9.1 15.46c-4.8925 8.513-11.351 19.57-14.286 24.56l-5.2839 9.0022h-55.285zm-174.86-0.5871c-7.6323-13.21-13.601-24.56-13.405-25.147 0.29355-0.68495 6.6538-11.742 14.188-24.658l13.699-23.484h56.166l13.601 23.484c7.5344 12.916 13.503 24.169 13.405 25.05-0.1957 0.88065-6.4581 12.231-13.993 25.147l-13.699 23.68h-56.068zm699.33 4.0118c-5.871-10.176-12.133-21.233-13.895-24.462l-3.3269-5.871 13.992-23.973 13.895-23.973 27.985-0.29355 27.985-0.1957 12.036 20.744c6.556 11.448 12.916 22.603 14.188 24.756l2.2505 3.914-11.938 20.548c-6.5559 11.351-12.916 22.212-14.09 24.267l-2.2505 3.6204-28.083-0.1957-28.083-0.29355zm-598.16-31.116c-1.3699-1.7613-27.104-47.457-27.104-48.142 0-1.1742 26.42-46.381 28.181-48.338 1.0764-1.0764 6.0667-1.1742 28.279-0.5871l26.909 0.7828 13.797 23.875 13.699 23.875-12.329 21.233c-6.7516 11.644-13.405 22.897-14.775 25.05l-2.4462 3.8162-27.104-0.7828c-14.873-0.3914-27.104-0.7828-27.104-0.7828zm-174.76-0.5871c-1.7613-1.6634-27.3-47.359-27.007-48.436 0.1957-0.68495 6.4581-11.84 13.993-24.854l13.699-23.68 28.279 0.29355 28.279 0.1957 27.985 48.925-1.8592 2.9355c-0.9785 1.5656-7.143 12.231-13.699 23.484-6.556 11.351-12.329 21.038-12.818 21.625-0.88065 1.0764-55.579 0.68495-56.851-0.48925zm880.65 0.29355-10.274-0.68495-13.503-23.582c-7.4366-13.014-13.503-23.973-13.503-24.56 0-0.48925 6.3603-11.938 14.09-25.245l14.09-24.267 27.692 0.1957 27.692 0.0978 2.3484 3.6204c1.1742 1.957 7.6323 12.916 14.188 24.462 10.47 18.298 11.84 21.233 10.861 23.19-1.1742 2.7398-25.441 44.424-26.811 46.185-1.0763 1.272-28.572 1.6634-46.87 0.5871zm-359.31-3.0334c-1.3699-2.0548-7.9258-13.308-14.58-25.05l-12.133-21.331 14.188-24.365 14.286-24.462h8.3172c4.599 0 17.319 0.29355 28.083 0.68495l19.766 0.5871 13.797 24.267 13.895 24.365-9.0022 15.362c-4.8925 8.513-11.351 19.57-14.286 24.56l-5.2839 9.0022h-54.698zm-186.4-20.451c-7.6323-13.308-13.797-24.56-13.797-25.05s6.2624-11.742 13.895-24.854l13.895-23.875 27.985 0.1957 27.887 0.29355 12.916 22.506c7.143 12.427 13.405 23.484 14.09 24.56 0.9785 1.8592-0.5871 4.9904-12.916 26.224l-14.09 24.071h-56.068zm-523.5-0.3914-13.895-24.462 14.09-24.267 14.09-24.169 28.279-0.1957 28.279-0.29355 13.993 24.462c12.427 21.918 13.797 24.756 12.818 26.713-2.2506 4.1097-25.637 44.228-26.615 45.5-0.68495 0.88065-7.7302 1.1742-28.964 1.1742h-28.083zm871.45-0.29355c-7.3388-13.014-13.405-24.169-13.405-24.658 0-0.5871 6.3602-11.742 14.09-24.952l13.992-23.973 27.496-0.29355 27.398-0.1957 13.797 24.071c7.6323 13.21 13.797 24.56 13.797 25.147s-6.2624 11.742-13.797 24.854l-13.895 23.778h-27.985l-27.985-0.0978zm-608.92-50.197-14.188-24.658 14.482-24.658 14.384-24.756 6.3602 0.68495c3.5226 0.29355 16.047 0.5871 27.692 0.5871h21.136l13.993 24.267c7.6323 13.308 13.895 24.658 13.895 25.147 0 0.5871-4.4032 8.513-9.785 17.613-5.2839 9.1979-11.546 19.864-13.895 23.778l-4.1097 7.0452-27.887-0.1957-27.887-0.29355zm721.64 23.386-12.329-0.5871-13.503-23.484c-7.4366-12.916-13.503-23.973-13.503-24.56 0-1.272 26.322-46.479 27.985-48.24 0.8806-0.88065 8.0235-0.9785 28.768-0.5871l27.692 0.5871 13.699 23.875c7.6323 13.21 13.699 24.267 13.503 24.658s-6.6538 11.546-14.384 24.854l-14.09 24.169h-15.754c-8.7087 0-21.331-0.29355-28.083-0.68495zm-199.22-22.799c-7.3388-12.623-13.503-23.778-13.699-24.658-0.29355-0.9785 5.186-11.448 13.503-25.735l13.993-23.973h27.985l27.887 0.0978 13.601 23.875c8.5129 15.069 13.308 24.56 12.916 25.539-0.48925 1.3699-23.288 40.901-26.615 46.185l-1.4678 2.1527-27.398-0.1957-27.398-0.29355zm-174.37-0.9785-13.993-24.56 14.58-24.952 14.482-25.05 7.2409 0.5871c4.0118 0.29355 16.341 0.5871 27.398 0.5871h20.157l13.699 24.071c7.5344 13.308 13.601 24.56 13.405 25.147-0.1957 0.48925-6.556 11.742-14.188 24.756l-13.895 23.875h-54.894zm-172.12 2.9355c-6.6538-11.546-13.014-22.701-14.09-24.658l-2.0548-3.5226 13.993-24.071 13.895-24.071h56.166l13.993 24.462c7.6323 13.503 13.797 24.854 13.601 25.343s-6.4581 11.448-13.993 24.462l-13.699 23.582-27.789-0.1957-27.887-0.29355zm-350.6-2.4462c-7.4366-12.916-13.601-24.071-13.601-24.756s6.2624-11.938 13.895-25.147l13.993-23.973h55.774l13.21 23.093c7.2409 12.72 13.601 23.973 14.09 24.952 0.68495 1.3699-2.2506 7.143-13.112 25.832l-13.993 23.973-28.376-0.1957-28.279-0.29355zm-174.86-0.1957c-7.6323-13.405-13.895-24.658-13.895-25.05 0-0.48925 6.2624-11.546 13.895-24.756l13.993-23.875h28.377l28.377 0.0978 13.895 24.365 13.797 24.462-14.188 24.462-14.286 24.462h-56.068zm610.49-50.686c-7.6323-13.112-13.797-24.267-13.797-24.658s6.3602-11.546 13.993-24.756l13.993-23.973 27.496-0.29355 27.496-0.1957 13.797 23.973c7.6323 13.112 13.797 24.365 13.797 24.952 0 1.0764-6.2624 12.133-21.527 38.162l-6.6538 11.253-54.894-0.5871zm348.05-0.88065-14.188-24.756 13.993-23.875 13.895-23.875 28.181-0.1957 28.279-0.29355 13.895 24.365 13.992 24.365-14.384 24.56-14.286 24.56h-55.188zm-171.43 5.2839c-6.0667-10.47-12.329-21.527-13.993-24.462l-3.1312-5.3818 13.993-23.973 13.895-23.973h56.557l13.993 24.365c12.133 21.233 13.797 24.56 12.818 26.42-2.1527 4.1097-25.539 44.13-26.517 45.402-0.68495 0.88065-7.2409 1.1742-28.866 0.9785l-27.887-0.29355zm-350.6-4.8925-13.895-24.462 14.286-24.462 14.188-24.462h55.09l27.985 49.121-7.5344 12.818c-4.1097 7.143-10.568 18.102-14.286 24.462l-6.7516 11.448h-27.594l-27.594-0.0978zm-174.47 0.29355c-7.5344-13.308-13.601-24.658-13.503-25.245 0.1957-0.68495 6.4581-11.84 13.993-24.756l13.699-23.68h55.97l14.188 24.756 14.09 24.756-11.057 19.081c-6.1646 10.47-12.427 21.331-13.993 24.169l-2.9355 5.0882h-56.557zm-174.86-0.68495-13.895-24.365 13.993-24.071 14.09-24.071 28.181-0.1957 28.279-0.29355 13.699 24.071c7.5344 13.21 13.699 24.462 13.699 25.147s-6.1646 11.84-13.699 24.854l-13.699 23.778-28.279-0.29355-28.376-0.1957zm449.62-26.909c-1.272-1.1742-27.202-47.066-27.202-48.142 0-0.5871 6.2624-11.84 13.895-24.952l13.895-23.875h55.187l14.384 25.05 14.286 24.952-13.405 23.19c-7.4366 12.72-13.797 23.68-14.188 24.267-0.88065 1.0764-55.579 0.68495-56.851-0.48925zm-186.4-21.136c-7.143-12.329-13.405-23.386-13.993-24.462-0.88065-1.7613 0.9785-5.4796 13.308-26.811l14.384-24.756 27.398 0.3914 27.3 0.29355 13.993 24.462c12.427 21.527 13.895 24.56 12.916 26.42-0.68495 1.1742-7.143 12.329-14.384 24.854l-13.21 22.799-27.398-0.3914-27.398-0.29355zm695.22-2.2506c-7.4366-13.112-13.503-24.365-13.308-25.05s6.4581-11.938 13.993-24.854l13.699-23.68 28.278 0.29355 28.279 0.1957 13.993 24.462c12.525 21.821 13.895 24.658 12.72 26.42-0.685 1.0764-7.0452 11.938-14.188 24.267l-13.014 22.212-28.376-0.1957-28.474-0.29355zm-172.51 2.5441c-6.8495-12.036-13.21-23.19-14.188-24.756l-1.8592-2.9355 27.985-47.946 28.279-0.1957 28.279-0.29355 13.895 24.462 13.993 24.365-14.286 24.462-14.286 24.56h-55.383zm-154.6 21.136-7.828-0.68495-13.993-24.462-13.895-24.462 27.985-48.142 19.57-0.29355c10.666-0.0978 23.386 0.0978 28.279 0.48925l8.7086 0.7828 13.895 24.169 13.797 24.169-14.286 24.462-14.188 24.56h-20.157c-11.057 0-23.582-0.29355-27.887-0.5871zm-541.7-20.157c-6.556-11.448-12.916-22.603-14.09-24.756l-2.2506-3.914 14.188-24.169 14.09-24.267h56.264l13.993 24.462c7.6323 13.503 13.797 24.854 13.601 25.343s-6.4581 11.448-13.993 24.462l-13.699 23.582h-56.068zm85.423-54.111c-12.133-21.038-13.895-24.658-13.014-26.615 1.6634-3.7183 25.735-44.717 27.007-46.185 0.9785-1.0764 6.1646-1.1742 28.572-0.5871l27.3 0.7828 13.21 22.995c7.143 12.623 13.503 23.68 13.895 24.658 0.68495 1.272-2.642 7.6323-13.21 25.832l-13.993 24.071-27.887-0.29355-27.887-0.1957zm695.81-0.9785c-12.623-22.016-13.797-24.56-12.623-26.42 0.68495-1.0764 7.0452-11.938 14.188-24.169l13.014-22.31h56.362l13.797 24.071c7.6323 13.308 13.797 24.462 13.797 24.952s-6.2624 11.742-13.992 24.854l-13.895 23.973-28.279-0.29355-28.376-0.1957zm-174.27 0.3914-13.993-24.56 14.09-24.071 14.09-24.169 27.887-0.29355 27.985-0.1957 13.895 24.169c8.1216 14.188 13.601 24.952 13.405 25.93-0.29355 0.88065-6.556 12.036-13.895 24.756l-13.405 22.995h-28.083l-27.985-0.0978zm-173.29 0.48925c-7.6323-13.308-13.797-24.56-13.797-25.245 0-0.5871 6.2624-11.742 13.993-24.854l13.895-23.778 27.398 0.0978c15.069 0 27.692 0.3914 28.083 0.7828 0.29355 0.3914 6.6538 11.155 13.993 23.973 8.0237 13.993 13.112 23.875 12.818 24.854-0.5871 1.272-23.386 40.901-26.615 46.087-1.3699 2.1527-1.4678 2.1527-28.67 2.1527h-27.3zm-174.47-0.88065-14.286-24.952 13.895-23.778 13.895-23.68h56.557l13.993 24.365c7.6323 13.405 13.797 24.658 13.601 24.952-0.48925 0.88065-13.601 23.386-21.136 36.302l-6.9474 11.742h-55.285zm434.85-50.98-13.993-24.658 27.985-48.142 28.279 0.29355 28.279 0.1957 13.993 24.267 13.895 24.365-2.642 4.5011c-1.4678 2.5441-7.828 13.503-14.188 24.462l-11.546 19.766-27.985-0.1957-27.985-0.29355zm-174.17 0.5871-13.895-24.56 28.181-48.338 27.789-0.29355 27.887-0.1957 13.601 23.68c7.4366 13.014 13.699 24.267 13.895 24.952 0.1957 0.7828-5.871 12.133-13.601 25.245l-13.895 23.973h-55.97zm-173.88 0.29355c-7.5344-13.308-13.601-24.56-13.405-25.147s6.556-11.742 14.188-24.756l13.797-23.778h55.187l13.895 24.169c7.5344 13.308 13.503 24.756 13.21 25.539-0.48925 1.272-23.484 41.097-26.517 45.99-1.3699 2.1527-1.4678 2.1527-29.061 2.1527l-27.594-0.0978zm-173.98-0.7828-14.188-24.854 13.895-23.778 13.797-23.778h56.459l13.601 23.484c7.4366 12.916 13.503 24.071 13.601 24.756 0 0.7828-6.2624 12.133-13.895 25.245l-13.895 23.875h-55.09zm609.21-50.393-13.993-24.462 28.572-48.925h56.166l13.993 24.56c10.764 18.787 13.797 24.952 13.21 26.224-0.4892 0.9785-6.8495 11.938-14.09 24.462l-13.21 22.603h-56.753zm-174.08-0.0978-13.797-23.973 28.572-49.316 27.789 0.29355 27.789 0.1957 13.601 23.778c7.4366 13.112 13.503 24.365 13.308 25.05s-6.4581 11.84-13.993 24.854l-13.699 23.68-27.887-0.29355-27.887-0.1957zm-174.27-0.29355-13.895-24.365 2.3484-4.0118c1.272-2.2506 7.6323-13.014 13.993-24.071l11.742-20.059h56.362l27.789 48.534-14.286 24.462-14.188 24.365-27.985-0.1957-27.887-0.29355zm-173.98 0.7828c-7.5344-13.308-13.601-24.56-13.405-25.148 0.1957-0.48925 6.556-11.644 14.09-24.756l13.895-23.875h55.187l13.014 22.799c7.143 12.427 13.601 23.582 14.286 24.658 1.0764 1.8592 0 4.2076-11.546 23.973-7.0452 12.133-13.405 22.995-14.188 24.267-1.3699 2.1527-1.4678 2.1527-29.551 2.1527h-28.083zm-174.76 0.0978c-7.4366-12.916-13.503-23.973-13.503-24.462-0.0978-0.5871 6.1646-11.84 13.895-24.952l13.895-23.973h56.557l13.503 23.484c7.4366 12.916 13.503 24.071 13.503 24.756 0.0978 0.68495-6.1646 12.036-13.797 25.245l-13.895 23.875-28.279-0.1957-28.376-0.29355zm87.771-50.686c-7.5344-13.014-13.601-24.169-13.601-24.658 0-0.5871 6.2624-11.938 13.993-25.245l14.09-24.169h55.872l13.993 24.462c12.525 22.016 13.895 24.658 12.818 26.615-3.0334 5.7732-25.735 44.522-26.909 45.794-1.0764 1.272-5.2839 1.4678-28.964 1.1742l-27.692-0.29355zm522.03-0.7828-14.09-24.56 1.8592-3.229c0.9785-1.6634 7.3388-12.623 14.09-24.267l12.231-21.136h28.376l28.376-0.09785 13.993 24.462 13.992 24.365-9.0022 15.46c-4.8925 8.513-11.351 19.57-14.286 24.56l-5.2839 9.0022h-56.166zm-173.78 0.48925c-7.5344-13.21-13.699-24.267-13.601-24.56 0-0.29355 6.3602-11.448 14.188-24.854l14.09-24.365 27.496 0.09785c24.658 0 27.692 0.1957 28.964 1.6634 1.4678 1.7613 26.028 44.424 26.42 46.087 0.1957 0.48925-6.0667 11.938-13.895 25.441l-14.188 24.56h-55.774zm-174.17-0.1957c-7.5344-13.21-13.699-24.56-13.699-25.245 0-0.5871 6.1646-11.742 13.699-24.756l13.699-23.582 28.279 0.1957 28.279 0.29355 13.895 24.365 13.993 24.365-6.0667 10.372c-3.3269 5.6753-9.785 16.634-14.188 24.365l-8.1216 13.895-27.985-0.0978h-28.083zm-349.42-0.48925-13.797-24.267 14.188-24.365 14.188-24.462h56.264l13.797 24.071c7.6323 13.308 13.797 24.56 13.797 25.05s-6.2624 11.742-13.895 24.854l-13.895 23.875-28.376-0.1957-28.376-0.29355zm462.44-25.735-12.329-0.68495-13.895-24.169-13.895-24.267 28.572-49.121 16.732 0.09785c9.2958 0.09785 22.114 0.3914 28.474 0.7828l11.742 0.5871 13.503 23.484c7.3388 12.916 13.503 23.778 13.503 24.267 0 0.3914-6.4581 11.742-14.286 25.147l-14.286 24.463h-15.754c-8.7086 0-21.331-0.29355-28.083-0.5871zm-344.92-0.3914h-15.754l-27.985-48.925 14.188-24.267 14.09-24.169 27.985-0.29355 28.083-0.1957 2.2506 3.6204c6.1646 9.6872 26.126 45.5 25.832 46.087-0.1957 0.3914-6.7516 11.644-14.482 25.05l-14.09 24.365-12.231-0.68495c-6.7516-0.29355-19.276-0.5871-27.887-0.5871z" fill="url(#linearGradient3914)"/>
 </g>
</svg>
